HIERARCHY
ROOT Hips
{
	OFFSET 0.00000 0.00000 0.00000
	CHANNELS 6 Xposition Yposition Zposition Yrotation Zrotation Xrotation 
	JOINT Lumbar
	{
		OFFSET 0 0 0
		CHANNELS 3 Zrotation Xrotation Yrotation
		JOINT Neck
		{
			OFFSET 0.00 0.2701 0.00
			CHANNELS 3 Zrotation Xrotation Yrotation
			End Site
			{
				OFFSET 0.00 0.1379 0.00
			}
		}
		JOINT RightShoulder
		{
			OFFSET 0.0119 0.2289 0.1181
			CHANNELS 3 Zrotation Xrotation Yrotation
			JOINT RightElbow
			{
				OFFSET 0.00 -0.1475 0.00
				CHANNELS 2 Zrotation Yrotation
				JOINT RightWrist
				{
					OFFSET 0.00 -0.1605 0.00
					CHANNELS 2 Zrotation Xrotation
					End Site
					{
						OFFSET 0.0040 -0.1068 0.0006
					}
				}
			}
		}
		JOINT LeftShoulder
		{
			OFFSET 0.0119 0.2289 -0.1181
			CHANNELS 3 Zrotation Xrotation Yrotation
			JOINT LeftElbow
			{
				OFFSET 0.00 -0.1475 0.00
				CHANNELS 2 Zrotation Yrotation
				JOINT LeftWrist
				{
					OFFSET 0.00 -0.1605 0.00
					CHANNELS 2 Zrotation Xrotation
					End Site
					{
						OFFSET 0.0040 -0.1068 -0.0006
					}
				}
			}
		}
	}
	JOINT RightHip
	{
		OFFSET 0.0316 -0.0424 0.0458
		CHANNELS 3 Zrotation Xrotation Yrotation
		JOINT RightKnee
		{
			OFFSET 0.00 -0.2438 0.00
			CHANNELS 1 Zrotation
			JOINT RightAnkle
			{
				OFFSET 0.00 -0.2449 0.00
				CHANNELS 3 Zrotation Xrotation Yrotation
				End Site
				{
					OFFSET 0.1237 -0.0542 0.0051
				}
			}
		}
	}
	JOINT LeftHip
	{
		OFFSET 0.0316 -0.0424 -0.0458
		CHANNELS 3 Zrotation Xrotation Yrotation
		JOINT LeftKnee
		{
			OFFSET 0.00 -0.2438 0.00
			CHANNELS 1 Zrotation
			JOINT LeftAnkle
			{
				OFFSET 0.00 -0.2449 0.00
				CHANNELS 3 Zrotation Xrotation Yrotation
				End Site
				{
					OFFSET 0.1237 -0.0542 -0.0051
				}
			}
		}
	}
}
MOTION
Frames: 19
Frame Time: 0.02
-0 -1e-05 -0.0002 178.64296 -30.98272 -2.1871 42.99137 2.17939 -5.63439 -7.86291 -1.85786 -0.86047 -20.87772 -11.20208 5.71263 36.63237 67.04977 2.41392 -5.2897 -22.89232 11.86457 -5.96856 42.59773 -112.36665 17.38602 -3.14882 32.90286 -0.52066 -11.24233 -20.44553 -7.85861 -3.18268 -3.85036 37.03979 8.14192 6.86587 -26.70127 -8.31167 3.35492 3.94425
-1e-05 -1e-05 -0.00015 178.62657 -30.95855 -2.17093 42.957 2.18449 -5.58381 -7.868 -1.92675 -0.86156 -20.87222 -11.05005 5.14943 36.3585 71.1881 3.08142 -4.2457 -22.79357 11.75775 -5.70583 42.09864 -112.36848 17.38223 -3.18234 32.85704 -0.60156 -11.55894 -20.44554 -7.8435 -3.15476 -3.83302 36.99361 8.16193 7.06998 -26.697 -8.29878 3.33932 3.93662
-1e-05 -1e-05 -9e-05 178.61014 -30.93469 -2.15482 42.92294 2.18958 -5.53335 -7.87307 -1.99546 -0.86264 -20.86667 -10.89866 4.58827 36.08543 75.30861 3.74595 -3.20621 -22.69517 11.65129 -5.44391 41.60069 -112.36598 17.37745 -3.21494 32.81169 -0.68219 -11.8744 -20.4456 -7.82845 -3.12692 -3.81573 36.94786 8.18196 7.27373 -26.69277 -8.28593 3.32373 3.929
-2e-05 -1e-05 -4e-05 178.59379 -30.91065 -2.1387 42.88872 2.19467 -5.48291 -7.87814 -2.06415 -0.86372 -20.86117 -10.74713 4.02687 35.81239 79.43321 4.41122 -2.16569 -22.59673 11.54481 -5.182 41.10306 -112.36679 17.37344 -3.24816 32.76609 -0.76283 -12.18999 -20.44562 -7.81339 -3.09908 -3.79844 36.90189 8.20193 7.47727 -26.68852 -8.27307 3.30816 3.92139
-2e-05 -2e-05 1e-05 178.57751 -30.88616 -2.12251 42.85407 2.19976 -5.4324 -7.88324 -2.13302 -0.8648 -20.85573 -10.59488 3.46328 35.53858 83.57798 5.07986 -1.12006 -22.49792 11.43794 -4.91926 40.60448 -112.3744 17.37099 -3.28277 32.71985 -0.84376 -12.50682 -20.44555 -7.79827 -3.07116 -3.78109 36.85536 8.22186 7.68101 -26.6842 -8.26019 3.29259 3.91378
-2e-05 -2e-05 7e-05 178.56077 -30.8636 -2.1066 42.82121 2.20487 -5.38203 -7.88824 -2.20138 -0.86589 -20.84993 -10.44529 2.90724 35.2671 87.64757 5.73578 -0.09344 -22.40036 11.33235 -4.65904 40.10788 -112.35119 17.36146 -3.31125 32.67634 -0.92375 -12.8194 -20.4459 -7.78337 -3.04349 -3.76394 36.81121 8.24208 7.88474 -26.68016 -8.24741 3.27699 3.90615
-3e-05 -2e-05 0.00012 178.54495 -30.8373 -2.09013 42.78494 2.20993 -5.33139 -7.89343 -2.27069 -0.86694 -20.84492 -10.29057 2.33672 34.99122 91.8624 6.41631 0.96989 -22.30042 11.22433 -4.39414 39.6078 -112.38762 17.36563 -3.35159 32.62752 -1.00552 -13.14009 -20.44544 -7.76804 -3.01535 -3.74641 36.76243 8.26172 8.08838 -26.67558 -8.23442 3.26144 3.89856
-3e-05 -2e-05 0.00018 178.52836 -30.81423 -2.07418 42.75152 2.21503 -5.28107 -7.89844 -2.33911 -0.86806 -20.83908 -10.1405 1.77937 34.71942 95.94613 7.07464 2.00009 -22.20264 11.11849 -4.13337 39.11099 -112.37346 17.35816 -3.3818 32.58334 -1.08566 -13.45347 -20.44566 -7.75311 -2.98764 -3.72923 36.71771 8.28185 8.29188 -26.67146 -8.22164 3.24586 3.89094
-4e-05 -3e-05 0.00023 178.51049 -30.79603 -2.05884 42.72277 2.2202 -5.23085 -7.90328 -2.40655 -0.86913 -20.83261 -9.9964 1.23869 34.45238 99.85917 7.704 2.98712 -22.1076 11.01553 -3.87828 38.61766 -112.27919 17.33236 -3.39628 32.54589 -1.16381 -13.75737 -20.44697 -7.73862 -2.96044 -3.71249 36.67882 8.30278 8.49623 -26.66809 -8.20905 3.23017 3.88325
-4e-05 -3e-05 0.00028 178.49897 -30.75259 -2.03993 42.67071 2.22505 -5.17916 -7.90922 -2.47994 -0.8701 -20.83089 -9.81878 0.60381 34.15726 104.72294 8.49451 4.2145 -21.99709 10.89666 -3.59237 38.10272 -112.59085 17.39964 -3.49119 32.4729 -1.25341 -14.11416 -20.44281 -7.72148 -2.93029 -3.69323 36.60901 8.3197 8.69881 -26.66094 -8.19518 3.21492 3.87585
-4e-05 -3e-05 0.00033 178.4747 -30.76061 -2.02858 42.66556 2.23052 -5.13115 -7.91277 -2.54057 -0.87151 -20.81843 -9.71137 0.16657 33.92186 107.60111 8.94861 4.94001 -21.91903 10.81093 -3.37034 37.63449 -112.08169 17.27857 -3.42293 32.47284 -1.31887 -14.36041 -20.44965 -7.71001 -2.90636 -3.67927 36.60274 8.34469 8.90309 -26.66141 -8.18414 3.19887 3.86793
-4e-05 3e-05 0.00037 178.40975 -30.92652 -2.03781 42.80936 2.23824 -5.08841 -7.91005 -2.56779 -0.8723 -20.78153 -9.80272 0.28603 33.84765 104.81125 8.44108 4.23207 -21.93195 10.82089 -3.33563 37.2863 -108.99206 16.56682 -2.84641 32.69288 -1.31738 -14.29185 -20.49174 -7.7137 -2.89951 -3.68014 36.78748 8.39524 9.12907 -26.68623 -8.17968 3.17937 3.85782
-3e-05 0.0001 0.0004 178.33299 -31.14144 -2.05462 42.99668 2.24651 -5.05015 -7.90479 -2.58193 -0.87383 -20.73254 -9.9634 0.6013 33.83369 100.06935 7.60309 3.03092 -21.97678 10.8635 -3.36361 36.98657 -105.13086 15.67781 -2.11578 32.98311 -1.29181 -14.11438 -20.54411 -7.72316 -2.89888 -3.68628 37.03355 8.45324 9.35371 -26.71815 -8.17826 3.15928 3.84733
-2e-05 0.00016 0.00044 178.26544 -31.32248 -2.06807 43.15069 2.25416 -5.01313 -7.90059 -2.60098 -0.87628 -20.68624 -10.08842 0.8175 33.79417 96.36256 6.94122 2.09178 -22.00615 10.88778 -3.35403 36.66988 -101.84732 14.92046 -1.49705 33.22736 -1.27766 -13.99435 -20.58827 -7.73026 -2.89537 -3.68982 37.23992 8.50559 9.56774 -26.74444 -8.17627 3.14026 3.83753
-5e-05 0.00022 0.00047 178.18195 -31.55082 -2.08127 43.36129 2.2633 -4.96271 -7.89712 -2.62429 -0.87361 -20.65322 -10.23129 1.07649 33.74795 92.02243 6.16834 0.99047 -22.04092 10.92588 -3.37962 36.33165 -97.63731 13.95448 -0.70729 33.52851 -1.2613 -13.84083 -20.64674 -7.7363 -2.89212 -3.69421 37.49384 8.56753 9.82877 -26.78048 -8.17094 3.11787 3.8256
2e-05 0.0003 0.00051 178.12849 -31.69449 -2.0967 43.46513 2.26955 -4.94074 -7.89108 -2.63575 -0.88153 -20.58784 -10.35321 1.29298 33.72886 88.54452 5.54935 0.11165 -22.07038 10.94416 -3.35087 36.05008 -95.13216 13.37166 -0.22969 33.73117 -1.24402 -13.73091 -20.67863 -7.74588 -2.88979 -3.69809 37.66638 8.61126 9.99202 -26.7984 -8.1732 3.10235 3.81797
0.00036 0.00047 0.00054 178.16398 -31.57264 -2.11695 43.25561 2.26684 -5.00078 -7.88215 -2.61671 -0.92061 -20.45125 -10.40195 1.34217 33.77907 87.88177 5.42852 -0.04457 -22.09084 10.88912 -3.1215 35.91029 -97.89923 13.97403 -0.71941 33.61494 -1.22848 -13.77046 -20.62775 -7.76423 -2.88869 -3.69931 37.5717 8.60302 9.88232 -26.76014 -8.1964 3.10616 3.82258
0.00081 0.00066 0.00057 178.22959 -31.36722 -2.13905 42.93795 2.26136 -5.08843 -7.86996 -2.58642 -0.96997 -20.2794 -10.42699 1.34252 33.8527 88.16136 5.47519 0.04225 -22.10197 10.8149 -2.84166 35.82627 -102.34735 14.95435 -1.51758 33.40241 -1.21308 -13.85667 -20.55095 -7.78592 -2.88833 -3.69985 37.39781 8.57623 9.67528 -26.70414 -8.22697 3.11683 3.83147
0.00124 0.00084 0.00061 178.27925 -31.21342 -2.15999 42.67583 2.25769 -5.16048 -7.85697 -2.56186 -1.0132 -20.11406 -10.46168 1.36599 33.90971 88.04054 5.45068 0.02662 -22.10903 10.75652 -2.6082 35.71865 -105.76876 15.70443 -2.12823 33.2538 -1.19882 -13.92066 -20.49065 -7.80575 -2.88741 -3.70064 37.27854 8.55775 9.51443 -26.65924 -8.2537 3.12429 3.83825
